# xmcd
#
# Track frame offsets:
#	150
#	13008
#	23936
#	39131
#	47484
#	56829
#	68876
#	80689
#	92593
#	111322
#	125434
#	138429
#	150575
#	164739
#	177074
#	190461
#	203942
#	215477
#
# Disc length: 2992 seconds
#
# Revision: 2
# Processed by: cddbd v1.5.2PL0 Copyright (c) Steve Scherf et al.
# Submitted via: EasyCDDAExtractor 10.0.2.1
#
DISCID=fd0bae12
DTITLE=Johnny Cash - Life (Remastered)
DYEAR=2004
DGENRE=Country
TTITLE0=Suppertime
TTITLE1=Country Trash
TTITLE2=The Night Hank Williams Came To Town
TTITLE3=Time Changes Everything
TTITLE4=I Talk To Jesus Every Day
TTITLE5=You're The Nearest Thing To Heaven
TTITLE6=I'm Ragged But I'm Right
TTITLE7=These Are My People
TTITLE8=The Ballad Of Ira Hayes
TTITLE9=Oney
TTITLE10=Man In Black
TTITLE11=I'm Alright Now
TTITLE12=Ragged Old Flag
TTITLE13=I Wish I Was Crazy Again
TTITLE14=Where Did We Go Right
TTITLE15=Wanted Man
TTITLE16=I Can't Go On That Way
TTITLE17=Lead Me Gently Home
EXTD=(c)2004 Sony Music Entertainment Inc.\nupc 5099751513629\n
EXTT0=
EXTT1=
EXTT2=
EXTT3=
EXTT4=
EXTT5=
EXTT6=
EXTT7=
EXTT8=
EXTT9=
EXTT10=
EXTT11=
EXTT12=
EXTT13=with Waylon Jennings
EXTT14=with The Carter Family
EXTT15=
EXTT16=unreleased
EXTT17=
PLAYORDER=
